<svg width="180" height="180" fill="none" xmlns="http://www.w3.org/2000/svg"><rect width="180" height="180" fill="#EE3643"/><path fill-rule="evenodd" clip-rule="evenodd" d="M43 41c-4 0-4 4-4 4v25c0 5 5 5 5 5h14c4 0 3 2 3 2l-4 25-3 6-5 2c-2 1-2 5-2 5h51v-2c0-3-11-5-15-6-4 0-4-3-4-3l2-13h5l2-13h-5l1-3h14c9-1 16-8 16-8V48c-8-6-20-7-20-7H43zm94 12h22l2 4c0 3-1 5-2 5h-22c-1 3-4 5-6 5h-13V47h13c2 0 5 3 6 6zm-87 88c-3 0-3-3-3-3v-18h51v18c0 3-3 3-3 3H50zm47-91l-2-1H47l-2 1 2 2h48l2-2z" fill="white"/></svg>